<svg id="Group_68" data-name="Group 68" xmlns="http://www.w3.org/2000/svg" width="77.591" height="68.221" viewBox="0 0 77.591 68.221"><desc>This SVG image consists of multiple stylized components resembling a series of interconnected abstract forms. The design includes various shapes that resemble elements like rounded paths, curves, and shapes that could be interpreted as stylized ornaments or abstract representations of natural forms. The overall color scheme uses shades of gold and yellow, adding depth and contrast to the design. These shapes are grouped in sections and arranged symmetrically, creating a cohesive visual effect.</desc>  <g id="Group_9" data-name="Group 9" transform="translate(33.947 12.308)">
    <g id="Group_8" data-name="Group 8" transform="translate(0 0)">
      <path id="Path_21" data-name="Path 21" d="M524.9,159.7v8.212h-9.7V159.7c.679-.258,1.341-.533,1.972-.824a4.815,4.815,0,0,0,5.755,0C523.091,158.945,524.74,159.7,524.9,159.7Z" transform="translate(-515.203 -158.873)" fill="#cdad7f"/>
    </g>
  </g>
  <g id="Group_24" data-name="Group 24" transform="translate(41.674 1.614)">
    <g id="Group_23" data-name="Group 23" transform="translate(0 0)">
      <path id="Path_29" data-name="Path 29" d="M533.7,156.22c0,1.616,4.85,4.85,1.617,6.465-2.419,1.383-10.341-1.243-13.287-2.57a4.837,4.837,0,0,0,0-7.791c4.558-2.134,11.25-3.589,13.287-2.571C538.552,151.37,533.7,154.6,533.7,156.22Z" transform="translate(-522.032 -149.421)" fill="#cdad7f"/>
    </g>
  </g>
  <g id="Group_26" data-name="Group 26" transform="translate(33.947 3.563)">
    <g id="Group_25" data-name="Group 25" transform="translate(0 0)">
      <path id="Path_30" data-name="Path 30" d="M522.93,159.889a4.847,4.847,0,1,1-2.877-8.745A4.851,4.851,0,0,1,522.93,159.889Z" transform="translate(-515.203 -151.144)" fill="#cdad7f"/>
    </g>
  </g>
  <g id="Group_28" data-name="Group 28" transform="translate(21.52 1.614)">
    <g id="Group_27" data-name="Group 27" transform="translate(0 0)">
      <path id="Path_31" data-name="Path 31" d="M518.619,160.116c-2.92,1.348-10.673,3.865-13.288,2.57-3.233-1.616,1.617-4.85,1.617-6.465s-4.85-4.85-1.617-6.466c2.037-1.018,8.729.437,13.288,2.571A4.834,4.834,0,0,0,518.619,160.116Z" transform="translate(-504.22 -149.421)" fill="#cdad7f"/>
    </g>
  </g>
  <g id="Group_22" data-name="Group 22" transform="translate(24.228 31.657)">
    <g id="Group_21" data-name="Group 21">
      <path id="Path_28" data-name="Path 28" d="M535.713,183.442c-.171,3.6-1.111,3.7-14.532,17.118-13.15-13.15-14.359-13.5-14.533-17.118a7.048,7.048,0,0,1,9.683-6.9c1.731.686,2.485,1.693,4.85,4.056,2.288-2.288,3.149-3.383,4.85-4.056C530.387,174.529,536.027,178.12,535.713,183.442Z" transform="translate(-506.614 -175.974)" fill="#cdad7f"/>
    </g>
  </g>
  <g id="Group_11" data-name="Group 11" transform="translate(33.947 21.344)">
    <g id="Group_10" data-name="Group 10" transform="translate(0 0)">
      <path id="Path_22" data-name="Path 22" d="M524.9,166.859v10.879c-1.732.686-2.485,1.693-4.85,4.056-2.289-2.288-3.15-3.383-4.85-4.056V166.859Z" transform="translate(-515.203 -166.859)" fill="#cdad7f"/>
    </g>
  </g>
  <g id="Group_13" data-name="Group 13" transform="translate(33.947 51.393)">
    <g id="Group_12" data-name="Group 12" transform="translate(0 0)">
      <path id="Path_23" data-name="Path 23" d="M524.546,193.773c.508-.508.356-2.665.356,14.855h-9.7V193.417c1.408,1.409,2.653,2.654,4.85,4.85Z" transform="translate(-515.203 -193.417)" fill="#cdad7f"/>
    </g>
  </g>
  <g id="Group_15" data-name="Group 15" transform="translate(6.466 39.125)">
    <g id="Group_14" data-name="Group 14">
      <path id="Path_24" data-name="Path 24" d="M515.826,192.273h-24.91v-9.7h17.8C508.874,185.918,510.5,186.945,515.826,192.273Z" transform="translate(-490.916 -182.574)" fill="#cdad7f"/>
    </g>
  </g>
  <g id="Group_17" data-name="Group 17" transform="translate(46.231 39.125)">
    <g id="Group_16" data-name="Group 16" transform="translate(0)">
      <path id="Path_25" data-name="Path 25" d="M550.954,182.574v9.7H526.06c4.96-4.96,6.934-6.268,7.1-9.7Z" transform="translate(-526.06 -182.574)" fill="#cdad7f"/>
    </g>
  </g>
  <g id="Group_20" data-name="Group 20" transform="translate(0 0)">
    <g id="Group_18" data-name="Group 18" transform="translate(0 0)">
      <path id="Path_26" data-name="Path 26" d="M561.176,154.791H541.4c4.96-6.609-2.768-9.108-14.407-4.1a6.584,6.584,0,0,0-5.988,0c-4.364-1.876-11.152-3.565-13.893-2.194-2.145,1.073-2.886,3.133-.513,6.3H486.818a1.616,1.616,0,0,0-1.617,1.617v12.932a1.616,1.616,0,0,0,1.617,1.616h3.233V214.6a1.616,1.616,0,0,0,1.617,1.616h64.659a1.616,1.616,0,0,0,1.617-1.616V170.955h3.233a1.616,1.616,0,0,0,1.617-1.616V156.408A1.616,1.616,0,0,0,561.176,154.791ZM539.639,151.5a8.357,8.357,0,0,1-1.172,1.8c-2.06,2.677-2.06,3.534,0,6.211,1.535,1.994,1.179,1.81.861,1.953-2.066.577-7.5-.911-9.75-1.791a6.475,6.475,0,0,0-.01-6.544C531.405,152.437,538.119,150.434,539.639,151.5Zm-18.875,16.219c0-6.135-.092-5.479.212-5.608a6.4,6.4,0,0,0,6.033.008c.317.13.222-.5.222,5.6ZM524,153.174A3.227,3.227,0,1,1,522.073,159,3.22,3.22,0,0,1,524,153.174Zm-15.443-1.787c1.025-.516,5.574.12,9.871,1.745a6.47,6.47,0,0,0-.012,6.541,30.744,30.744,0,0,1-7.522,1.864c-5.559.523.173-2.109.173-5.129C511.064,154.188,507.687,151.828,508.555,151.387Zm-20.121,6.636c21.378,0,18.177-.643,17.075,1.742a3.2,3.2,0,0,0,1.6,4.557c2.466,1.217,7.769-.1,10.418-.928v4.328h-29.1Zm66.277,54.961H493.283V170.955H554.71Zm4.85-45.262h-29.1V163.4c11.816,3.672,14.228-.69,11.271-4.912-.464-.662-3.1-.464,17.827-.464Z" transform="translate(-485.201 -147.995)"/>
    </g>
    <g id="Group_19" data-name="Group 19" transform="translate(22.631 30.096)">
      <path id="Path_27" data-name="Path 27" d="M522.73,177.131l-1.362,1.362-1.362-1.362a8.674,8.674,0,0,0-12.26,12.274c13.449,13.45,12.664,12.953,13.622,12.953s.163.506,13.615-12.945a8.674,8.674,0,1,0-12.253-12.282Zm4.171,1.056a5.423,5.423,0,0,1,7.384,5.359c-.141,2.988-1.392,3.384-12.917,14.911-11.781-11.782-12.787-12.12-12.918-14.911a5.456,5.456,0,0,1,6.978-5.506c1.72.53,2.341,1.427,4.8,3.882C522.247,183.945,523.851,179.407,526.9,178.186Z" transform="translate(-505.202 -174.594)"/>
    </g>
  </g>
</svg>
