<svg xmlns="http://www.w3.org/2000/svg" width="74.359" height="77.583" viewBox="0 0 74.359 77.583"><title>Illustration of a symbolic representation of a person or figure in a stylized design.</title>
  <desc>A complex, abstract design featuring a central figure with layered shapes, elements that resemble a person's body or outline, with various geometric paths in a mix of soft yellow and beige colors.</desc>  <g id="Group_58" data-name="Group 58" transform="translate(0)">
    <g id="Group_59" data-name="Group 59" transform="translate(17.781 1.617)">
      <g id="Group_58-2" data-name="Group 58">
        <path id="Path_46" data-name="Path 46" d="M992.592,154.826v37.519a20.82,20.82,0,0,0-14.549-12.69v-6.369a12.944,12.944,0,0,0,8.082-11.994v-6.466c-3.8.539-10.589,2.145-17.781-3.233a11.047,11.047,0,0,1-7.807,3.233c-.386,0-.275-.961-.275,6.466a12.944,12.944,0,0,0,8.082,11.994v6.369A20.847,20.847,0,0,0,953.8,192.313V154.826a19.4,19.4,0,0,1,38.8,0Z" transform="translate(-953.796 -135.429)" fill="#cdad7f"/>
      </g>
    </g>
    <g id="Group_63" data-name="Group 63" transform="translate(22.778 48.592)">
      <g id="Group_62" data-name="Group 62">
        <g id="Group_61" data-name="Group 61">
          <path id="Path_48" data-name="Path 48" d="M985.545,204.328v-8.082a8.736,8.736,0,0,0,0-9.7h-7.21a19.874,19.874,0,0,1-17.021-9.6l-1.633,1.2v8.406a8.736,8.736,0,0,0,0,9.7v8.082Z" transform="translate(-958.212 -176.945)" fill="#cdad7f"/>
        </g>
      </g>
    </g>
    <g id="Group_60" data-name="Group 60" transform="translate(12.927 0)">
      <path id="Path_47" data-name="Path 47" d="M995.915,196.574c-1.51-9.312-1.143,8.652-1.143-41.56a21.014,21.014,0,0,0-42.028,0v37.24c-1.092,3.014-1.021,3.536-3.215,17.469a1.617,1.617,0,0,0,3.2.5c2.129-13.53,1.993-17.452,6.484-22.661v4.165a10.329,10.329,0,0,0,0,10.627v7.618a1.617,1.617,0,0,0,3.234,0c0-8.64.105-8.406-.267-8.97a7.114,7.114,0,0,1,0-7.922c.362-.551.267-.281.267-7.669a21.6,21.6,0,0,0,17.037,8.4h6.283A7.1,7.1,0,0,1,985.34,201c-.38.577-.266.33-.266,8.97a1.616,1.616,0,0,0,3.233,0v-7.618c3.121-5.251.551-11.779-1.617-11.779h-7.21a18.332,18.332,0,0,1-14.7-7.468c6.377-3.355,5.741.352,5.741-7.459a14.038,14.038,0,0,0,6.465,0v4.193a1.617,1.617,0,0,0,1.249,1.574,19.2,19.2,0,0,1,13.407,11.7c1.008,2.6.944,3.139,3.144,17.111a1.617,1.617,0,0,0,3.2-.5ZM962.443,161.48v-4.922a12.8,12.8,0,0,0,6.588-2.72c5.294,3.459,10.439,3.831,16.043,3.037,0,6.056.739,11.195-7.074,15.1A11.319,11.319,0,0,1,962.443,161.48ZM980.225,178.6v-4.084a15.08,15.08,0,0,0,5.734-5.122c2.955-4.556,2.348-8.557,2.348-14.382a1.618,1.618,0,0,0-1.842-1.6l-3.312.468a18.184,18.184,0,0,1-13.277-3.4c-2.156-1.616-2.872,2.911-8.775,2.911-1.858,0-1.892,1.455-1.892,1.616,0,6.389-.7,11.113,3.6,16.032a15.658,15.658,0,0,0,4.483,3.473V178.6a22.386,22.386,0,0,0-11.315,7.79V155.014a17.781,17.781,0,1,1,35.563,0v31.394A22.5,22.5,0,0,0,980.225,178.6Z" transform="translate(-949.505 -134)"/>
    </g>
    <g id="Group_65" data-name="Group 65" transform="translate(0 22.626)">
      <g id="Group_64" data-name="Group 64">
        <path id="Path_49" data-name="Path 49" d="M947.408,154.226c2.439.9,1.989,2.774,1.989,11.092h-8.088a3.243,3.243,0,0,1-1.541-6.085c.9-.475,1.541-.381,3.162-.381,0-1.548-.1-2.258.382-3.162A3.274,3.274,0,0,1,947.408,154.226Z" transform="translate(-938.081 -153.997)" fill="#cdad7f"/>
      </g>
    </g>
    <g id="Group_67" data-name="Group 67" transform="translate(63.01 4.845)">
      <g id="Group_66" data-name="Group 66">
        <path id="Path_50" data-name="Path 50" d="M995.791,138.511c-2.439.9-1.989,2.774-1.989,11.091h8.088a3.243,3.243,0,0,0,1.541-6.084c-.9-.475-1.54-.381-3.162-.381,0-1.548.1-2.258-.382-3.163A3.273,3.273,0,0,0,995.791,138.511Z" transform="translate(-993.769 -138.282)" fill="#cdad7f"/>
      </g>
    </g>
  </g>
</svg>
