<svg id="Group_47" data-name="Group 47" xmlns="http://www.w3.org/2000/svg" width="77.592" height="77.591" viewBox="0 0 77.592 77.591"><title id="svgTitle">Abstract geometric composition featuring overlapping paths, rectangles, and curves in muted golden yellow. The design includes angular shapes and flowing lines arranged in a complex, layered formation.</title>
  <desc>Detailed abstract geometric design with overlapping shapes in golden yellow. The composition includes diagonal lines, curves, and angular patterns, creating an intricate, layered effect.</desc>  <g id="Group_48" data-name="Group 48" transform="translate(54.87 56.189)">
    <g id="Group_47-2" data-name="Group 47">
      <path id="Path_41" data-name="Path 41" d="M872.174,190.8l10.552,10.552-1.319,9.233-10.552-10.552Z" transform="translate(-870.855 -190.803)" fill="#cdad7f"/>
    </g>
  </g>
  <g id="Group_52" data-name="Group 52" transform="translate(1.578 1.58)">
    <g id="Group_51" data-name="Group 51">
      <path id="Path_43" data-name="Path 43" d="M826.364,159.044c-3.13-1.425-2.57-3.4-2.57-16.468,13.062,0,13.739-.4,15.559,1.421a4.865,4.865,0,0,1-1.117,7.705c-1.343.712-2.306.573-4.743.573,0,2.322.146,3.388-.573,4.743A4.945,4.945,0,0,1,826.364,159.044Z" transform="translate(-823.756 -142.539)" fill="#cdad7f"/>
    </g>
  </g>
  <g id="Group_54" data-name="Group 54" transform="translate(13.251 13.251)">
    <g id="Group_53" data-name="Group 53">
      <rect id="Rectangle_21" data-name="Rectangle 21" width="22.385" height="11.192" transform="translate(0 15.828) rotate(-45)" fill="#cdad7f"/>
    </g>
  </g>
  <g id="Group_57" data-name="Group 57" transform="translate(14.553 14.555)">
    <g id="Group_56" data-name="Group 56">
      <path id="Path_45" data-name="Path 45" d="M885.046,155.14,873.519,192.3l-37.162,11.526a1.617,1.617,0,0,0,.958,3.088c22.95-7.118,38.2-11.851,37.986-11.784,1.191-.38.126,1.935,12.832-39.034A1.616,1.616,0,0,0,885.046,155.14Z" transform="translate(-835.223 -154.006)" fill="#cdad7f"/>
    </g>
  </g>
  <g id="Group_50" data-name="Group 50" transform="translate(56.189 54.87)">
    <g id="Group_49" data-name="Group 49">
      <path id="Path_42" data-name="Path 42" d="M872.021,190.956l10.552,10.552,9.233-1.319-10.552-10.552Z" transform="translate(-872.021 -189.637)" fill="#cdad7f"/>
    </g>
  </g>
  <g id="Group_55" data-name="Group 55" transform="translate(0 0)">
    <path id="Path_44" data-name="Path 44" d="M899.478,205.423c-11.246-11.246-10.817-11.177-11.922-11.009l-8.435,1.2-25.394-25.394c7.167-7.168,7.245-6.965,7.245-7.914,0-3.091-3.035,2.016,3.191-7.773a5.838,5.838,0,0,1,7.1-2.281l17.57,7.016a5.364,5.364,0,0,0,7.2-6.728c-1.1-2.99-1.816-2.634-20.785-10.216a16.539,16.539,0,0,0-20.1,6.475l-2.754,4.318a1.558,1.558,0,0,0-2.091.13l-6.771,6.771-6.094-6.093c7.518-1.557,6.466-12.743-1.324-12.786H823.978a1.616,1.616,0,0,0-1.617,1.617v12.225a6.263,6.263,0,0,0,6.46,6.363,6.4,6.4,0,0,0,6.328-5.131l6.092,6.091c-7.36,7.361-6.947,6.875-7.124,7.3a1.521,1.521,0,0,0,.222,1.563l-4.314,2.752a16.542,16.542,0,0,0-6.48,20.1c7.6,19.024,7.237,19.686,10.217,20.783a5.365,5.365,0,0,0,6.727-7.2l-7.015-17.566a5.841,5.841,0,0,1,2.281-7.1l6.292-4c1.9,1.9,2.151.809,9.395-6.435l25.4,25.4-1.205,8.433c-.162,1.121-.225.688,11.009,11.925a1.616,1.616,0,0,0,1.654.389c1.253-.415,1.013-.772,2.237-9.337,8.763-1.253,8.926-1,9.338-2.237A1.616,1.616,0,0,0,899.478,205.423ZM832.06,154.889c0,4.192-6.466,4.363-6.466.1V144.377h10.5c4.3.023,4.278,6.465.01,6.465C831.966,150.842,832.06,150.561,832.06,154.889Zm25.811-4.352a13.309,13.309,0,0,1,16.171-5.208l17.75,7.1a2.117,2.117,0,1,1-1.762,3.846c-.162,0,1.746.7-17.573-7.019a9.072,9.072,0,0,0-11.024,3.551l-3.614,5.685-3.064-3.066Zm-6.431,6.142,5.628,5.63-13.542,13.54-5.629-5.627Zm-17.42,23.534a9.079,9.079,0,0,0-3.549,11.029l7.016,17.57c.251,0,.519,2.109-.883,2.848a2.123,2.123,0,0,1-2.96-1.079l-7.1-17.755a13.306,13.306,0,0,1,5.212-16.173l4.881-3.114L839.7,176.6Zm52.621,33.476-7.694-7.7.747-5.233c4.653,4.653,5.1,5.1,7.7,7.7Zm3.033-7.519c-.8-.8-7.067-7.068-7.694-7.7l5.232-.747,7.7,7.694Z" transform="translate(-822.361 -141.143)"/>
  </g>
</svg>
